<svg t="1718716433917" class="icon" viewBox="0 0 1024 1024" version="1.1" xmlns="http://www.w3.org/2000/svg" p-id="2547" width="200" height="200"><path d="M924.964959 660.871515h-40.82604l-9.568603-280.679022C874.570316 177.976016 717.326273 0 513.196075 0A370.304937 370.304937 0 0 0 142.572185 367.434356v293.437159H95.68603a95.68603 95.68603 0 0 0-95.68603 95.686031 95.68603 95.68603 0 0 0 95.68603 95.68603h243.680424v2.232674a169.364273 169.364273 0 0 0 339.0475 0v-2.232674H924.964959a95.68603 95.68603 0 0 0 95.68603-95.68603 95.68603 95.68603 0 0 0-95.68603-95.686031z m-310.660645 191.372061a105.573587 105.573587 0 0 1-211.466127 0v-2.232674h210.82822s0.637907 1.913721 0.637907 2.551627zM924.964959 787.177075H95.68603a31.895343 31.895343 0 1 1 0-63.790687h78.781498a31.895343 31.895343 0 0 0 31.895344-31.895343v-312.574365A314.169133 314.169133 0 0 1 446.534808 70.807662C647.475471 25.197321 810.779629 191.37206 810.779629 380.192493l9.568603 280.679022v31.895344a31.895343 31.895343 0 0 0 31.895344 31.895343H924.964959a31.895343 31.895343 0 1 1 0 63.790687z" p-id="2548"></path></svg>
